<mxfile host="app.diagrams.net" modified="2024-03-27T15:12:55.969Z" agent="Mozilla/5.0 (Windows NT 10.0; Win64; x64) AppleWebKit/537.36 (KHTML, like Gecko) Chrome/123.0.0.0 Safari/537.36" etag="8GqF-kUtoJnMjZbN74Ds" version="24.2.0" type="device">
  <diagram name="Trang-1" id="jcGi4OQ8nvNWdJNOWrVu">
    <mxGraphModel dx="1562" dy="938" grid="1" gridSize="10" guides="1" tooltips="1" connect="1" arrows="1" fold="1" page="1" pageScale="1" pageWidth="827" pageHeight="1169" math="0" shadow="0">
      <root>
        <mxCell id="0" />
        <mxCell id="1" parent="0" />
        <mxCell id="FmBBbiMj-wgR0HNExI7J-1" value="" style="swimlane;startSize=0;fontSize=15;" vertex="1" parent="1">
          <mxGeometry x="209" y="40" width="440" height="640" as="geometry">
            <mxRectangle x="320" y="80" width="50" height="40" as="alternateBounds" />
          </mxGeometry>
        </mxCell>
        <mxCell id="FmBBbiMj-wgR0HNExI7J-2" value="&lt;b style=&quot;font-size: 15px;&quot;&gt;&lt;font style=&quot;font-size: 15px;&quot;&gt;Online Image Editor&lt;/font&gt;&lt;/b&gt;" style="text;html=1;align=center;verticalAlign=middle;resizable=0;points=[];autosize=1;strokeColor=none;fillColor=none;fontSize=15;" vertex="1" parent="FmBBbiMj-wgR0HNExI7J-1">
          <mxGeometry x="160" y="8" width="170" height="30" as="geometry" />
        </mxCell>
        <mxCell id="FmBBbiMj-wgR0HNExI7J-3" value="Login to application" style="ellipse;whiteSpace=wrap;html=1;fontSize=15;" vertex="1" parent="FmBBbiMj-wgR0HNExI7J-1">
          <mxGeometry x="101" y="70" width="120" height="80" as="geometry" />
        </mxCell>
        <mxCell id="FmBBbiMj-wgR0HNExI7J-4" value="Make purchase to VIP subscription" style="ellipse;whiteSpace=wrap;html=1;fontSize=15;" vertex="1" parent="FmBBbiMj-wgR0HNExI7J-1">
          <mxGeometry x="251" y="130" width="130" height="90" as="geometry" />
        </mxCell>
        <mxCell id="FmBBbiMj-wgR0HNExI7J-7" value="Download edited image" style="ellipse;whiteSpace=wrap;html=1;fontSize=15;" vertex="1" parent="FmBBbiMj-wgR0HNExI7J-1">
          <mxGeometry x="101" y="220" width="120" height="80" as="geometry" />
        </mxCell>
        <mxCell id="FmBBbiMj-wgR0HNExI7J-8" value="Save image as draft" style="ellipse;whiteSpace=wrap;html=1;fontSize=15;" vertex="1" parent="FmBBbiMj-wgR0HNExI7J-1">
          <mxGeometry x="251" y="320" width="120" height="80" as="geometry" />
        </mxCell>
        <mxCell id="FmBBbiMj-wgR0HNExI7J-5" value="Edit image using free tools" style="ellipse;whiteSpace=wrap;html=1;fontSize=15;" vertex="1" parent="FmBBbiMj-wgR0HNExI7J-1">
          <mxGeometry x="40" y="400" width="120" height="80" as="geometry" />
        </mxCell>
        <mxCell id="FmBBbiMj-wgR0HNExI7J-10" style="edgeStyle=orthogonalEdgeStyle;rounded=0;orthogonalLoop=1;jettySize=auto;html=1;exitX=0.5;exitY=0;exitDx=0;exitDy=0;entryX=0.5;entryY=1;entryDx=0;entryDy=0;dashed=1;fontSize=15;" edge="1" parent="FmBBbiMj-wgR0HNExI7J-1" source="FmBBbiMj-wgR0HNExI7J-6" target="FmBBbiMj-wgR0HNExI7J-5">
          <mxGeometry relative="1" as="geometry" />
        </mxCell>
        <mxCell id="FmBBbiMj-wgR0HNExI7J-11" value="&amp;lt;&amp;lt;extend&amp;gt;&amp;gt;" style="edgeLabel;html=1;align=center;verticalAlign=middle;resizable=0;points=[];fontSize=15;" vertex="1" connectable="0" parent="FmBBbiMj-wgR0HNExI7J-10">
          <mxGeometry x="-0.1302" y="-2" relative="1" as="geometry">
            <mxPoint x="-1" as="offset" />
          </mxGeometry>
        </mxCell>
        <mxCell id="FmBBbiMj-wgR0HNExI7J-6" value="Edit image using purchased tools" style="ellipse;whiteSpace=wrap;html=1;fontSize=15;" vertex="1" parent="FmBBbiMj-wgR0HNExI7J-1">
          <mxGeometry x="40" y="545" width="120" height="80" as="geometry" />
        </mxCell>
        <mxCell id="FmBBbiMj-wgR0HNExI7J-15" style="rounded=0;orthogonalLoop=1;jettySize=auto;html=1;exitX=0.5;exitY=0.5;exitDx=0;exitDy=0;exitPerimeter=0;endArrow=none;endFill=0;fontSize=15;" edge="1" parent="1" source="FmBBbiMj-wgR0HNExI7J-13" target="FmBBbiMj-wgR0HNExI7J-3">
          <mxGeometry relative="1" as="geometry" />
        </mxCell>
        <mxCell id="FmBBbiMj-wgR0HNExI7J-16" style="rounded=0;orthogonalLoop=1;jettySize=auto;html=1;exitX=0.5;exitY=0.5;exitDx=0;exitDy=0;exitPerimeter=0;entryX=0;entryY=0.5;entryDx=0;entryDy=0;endArrow=none;endFill=0;fontSize=15;" edge="1" parent="1" source="FmBBbiMj-wgR0HNExI7J-13" target="FmBBbiMj-wgR0HNExI7J-4">
          <mxGeometry relative="1" as="geometry" />
        </mxCell>
        <mxCell id="FmBBbiMj-wgR0HNExI7J-17" style="rounded=0;orthogonalLoop=1;jettySize=auto;html=1;exitX=0.5;exitY=0.5;exitDx=0;exitDy=0;exitPerimeter=0;entryX=0;entryY=0.5;entryDx=0;entryDy=0;endArrow=none;endFill=0;fontSize=15;" edge="1" parent="1" source="FmBBbiMj-wgR0HNExI7J-13" target="FmBBbiMj-wgR0HNExI7J-5">
          <mxGeometry relative="1" as="geometry" />
        </mxCell>
        <mxCell id="FmBBbiMj-wgR0HNExI7J-18" style="rounded=0;orthogonalLoop=1;jettySize=auto;html=1;exitX=0.5;exitY=0.5;exitDx=0;exitDy=0;exitPerimeter=0;entryX=0;entryY=0.5;entryDx=0;entryDy=0;endArrow=none;endFill=0;fontSize=15;" edge="1" parent="1" source="FmBBbiMj-wgR0HNExI7J-13" target="FmBBbiMj-wgR0HNExI7J-7">
          <mxGeometry relative="1" as="geometry" />
        </mxCell>
        <mxCell id="FmBBbiMj-wgR0HNExI7J-19" style="rounded=0;orthogonalLoop=1;jettySize=auto;html=1;exitX=0.5;exitY=0.5;exitDx=0;exitDy=0;exitPerimeter=0;entryX=0;entryY=0.5;entryDx=0;entryDy=0;endArrow=none;endFill=0;fontSize=15;" edge="1" parent="1" source="FmBBbiMj-wgR0HNExI7J-13" target="FmBBbiMj-wgR0HNExI7J-8">
          <mxGeometry relative="1" as="geometry" />
        </mxCell>
        <mxCell id="FmBBbiMj-wgR0HNExI7J-13" value="User" style="shape=umlActor;verticalLabelPosition=bottom;verticalAlign=top;html=1;outlineConnect=0;fontSize=15;" vertex="1" parent="1">
          <mxGeometry x="59" y="240" width="30" height="60" as="geometry" />
        </mxCell>
        <mxCell id="FmBBbiMj-wgR0HNExI7J-20" style="rounded=0;orthogonalLoop=1;jettySize=auto;html=1;exitX=0.5;exitY=0.5;exitDx=0;exitDy=0;exitPerimeter=0;endArrow=none;endFill=0;fontSize=15;" edge="1" parent="1" source="FmBBbiMj-wgR0HNExI7J-14" target="FmBBbiMj-wgR0HNExI7J-6">
          <mxGeometry relative="1" as="geometry" />
        </mxCell>
        <mxCell id="FmBBbiMj-wgR0HNExI7J-21" style="edgeStyle=orthogonalEdgeStyle;rounded=0;orthogonalLoop=1;jettySize=auto;html=1;endArrow=block;endFill=0;strokeWidth=1;fontSize=15;" edge="1" parent="1" source="FmBBbiMj-wgR0HNExI7J-14">
          <mxGeometry relative="1" as="geometry">
            <mxPoint x="74" y="320" as="targetPoint" />
            <mxPoint x="74" y="410" as="sourcePoint" />
          </mxGeometry>
        </mxCell>
        <mxCell id="FmBBbiMj-wgR0HNExI7J-14" value="Purchased user" style="shape=umlActor;verticalLabelPosition=bottom;verticalAlign=top;html=1;outlineConnect=0;fontSize=15;" vertex="1" parent="1">
          <mxGeometry x="59" y="430" width="30" height="60" as="geometry" />
        </mxCell>
        <mxCell id="FmBBbiMj-wgR0HNExI7J-27" style="rounded=0;orthogonalLoop=1;jettySize=auto;html=1;entryX=1;entryY=0.5;entryDx=0;entryDy=0;exitX=0;exitY=0.3333333333333333;exitDx=0;exitDy=0;exitPerimeter=0;endArrow=none;endFill=0;fontSize=15;" edge="1" parent="1" source="FmBBbiMj-wgR0HNExI7J-23">
          <mxGeometry relative="1" as="geometry">
            <mxPoint x="769" y="274" as="sourcePoint" />
            <mxPoint x="609" y="154" as="targetPoint" />
          </mxGeometry>
        </mxCell>
        <mxCell id="FmBBbiMj-wgR0HNExI7J-28" style="rounded=0;orthogonalLoop=1;jettySize=auto;html=1;exitX=0;exitY=0.3333333333333333;exitDx=0;exitDy=0;exitPerimeter=0;entryX=1;entryY=0.5;entryDx=0;entryDy=0;endArrow=none;endFill=0;fontSize=15;" edge="1" parent="1" source="FmBBbiMj-wgR0HNExI7J-23">
          <mxGeometry relative="1" as="geometry">
            <mxPoint x="609" y="260" as="targetPoint" />
          </mxGeometry>
        </mxCell>
      </root>
    </mxGraphModel>
  </diagram>
</mxfile>
